<svg xmlns="http://www.w3.org/2000/svg" viewBox="0 0 322 44"><path fill="#E56100" fill-rule="evenodd" d="M9.38 7.12L8.5 8.25L8.5 26.38L9.12 27.75L10.75 29.25L11.38 30.62L12.62 31L12.88 30.75L12.62 29.25L12.62 22.75L13.12 22.12L14.75 22.38L14.75 41.12L15 41.88L15.75 42.25L16.25 43.12L17.25 43.12L31 28.62L31 13.88L30.62 13.12L28.75 13L27.38 13.5L27.12 14.12L27.25 26.5L27 27.75L26.38 28L26 28.75L25.25 29.12L25 29.75L24.12 30.38L24 30.88L21.12 33.5L20 35.12L19.25 35.5L18.75 34.88L18.88 13.88L18.12 13.12L15.25 13.12L14.75 14.12L14.88 17.38L14.12 18L12.88 17.88L12.5 17.38L12.62 8.25L11.62 7.12ZM48.75 8.5L47.38 9.12L46.12 11L46 31.62L46.12 32.62L46.88 33.75L48.5 34.88L49.62 34.88L50.88 34.12L51.88 33L52 25.12L52.62 24.62L66.75 24.5L67.62 24.75L68 25.5L67.88 32.5L68.25 33.38L70.25 34.88L71.25 34.88L72.62 34.12L73.5 33.12L73.88 32.12L73.88 11.25L72.88 9.38L71.75 8.75L70.38 8.5L69 9.12L68.12 10.12L67.88 11L68 17.62L67.62 18.75L52.62 18.88L52 18.12L51.88 10.25L50.75 9ZM81.38 8.5L79.88 9.12L79 10.12L78.62 11.25L79.12 13.12L80 14L81.12 14.5L103.88 14.5L105.88 13.12L106.25 12L106 10.12L104.88 9L103.88 8.62ZM114.62 8.5L112.88 9.12L112.12 9.88L111.62 11.12L111.62 22L112.38 23.75L114.12 24.75L115 24.75L116.88 23.62L117.62 22L117.38 15.38L118.38 14.38L126.75 14.38L129.62 15.25L131.88 17.25L132.12 18L132.62 18.38L133.25 20.25L133.38 22L132.88 24.5L131.75 26.38L130 27.88L128.5 28.62L126.88 29L114.38 28.88L113.12 29.25L111.62 31.25L111.62 32.38L112.25 33.75L114.25 34.88L127.5 34.88L128.5 34.38L130.88 34L131.88 33.25L132.88 33L135.75 30.75L138 27.38L138.88 25.25L139.12 23.75L139.12 19.62L138.75 17.88L137.88 15.75L136 13L134 11.12L129.88 9L127.38 8.62ZM200.12 8.5L178.62 8.62L177.12 9.25L176.12 10.75L176 31L176.12 32.62L177.12 34L178.5 34.88L179.62 34.88L180.88 34.12L182 32.75L182.12 14.88L182.88 14.38L201.38 14.5L202.88 13.75L203.75 12.38L203.88 11L202.62 9.12ZM145.62 8.62L144.12 9.25L143.12 10.75L143.25 12.62L144.25 13.88L145.62 14.5L168.25 14.5L169.62 13.88L170.88 12.25L170.75 10.38L169.62 9.12L168.38 8.62ZM187.75 18.75L186.12 19.12L185.12 20.12L184.75 21L184.75 22.38L185.38 23.62L187.25 24.62L201.62 24.62L202.62 24L203.88 22.38L203.62 20.62L202.62 19.38L201.62 18.88ZM80.75 18.88L79 20.25L78.75 22.38L79.38 23.62L81.12 24.62L103.75 24.62L105.62 23.62L106.25 22.25L105.88 20.12L104.25 18.88ZM145.38 18.88L144.25 19.38L143.38 20.5L143 21.88L144 23.75L145.5 24.62L168.5 24.62L169.62 24L170.88 22.5L170.62 20.38L168.62 18.88ZM81.38 28.88L80.12 29.25L79 30.38L78.75 31.12L78.75 32.62L79.25 33.75L81.12 34.88L103.75 34.88L105.62 33.75L106.25 32.38L105.88 30.25L104.75 29.25L103.62 28.88ZM145.62 28.88L144.5 29.38L143.12 31.12L143.12 32.75L144.25 34.12L145.5 34.88L168.12 34.88L169.88 34L170.88 32.62L170.75 30.88L169.5 29.5L168.62 29Z"/><path fill="#2F3437" fill-rule="evenodd" d="M4.38 2.12L3.62 2.62L3.38 3.25L3.25 28.62L5.25 31.5L9 35.12L10.12 36.75L10.88 37.12L11.12 37.88L11.62 38L12.12 39.12L12.62 39.38L13.12 38.88L13 34.25L11.12 32.38L8.75 29.25L8.12 29L7.88 28.38L7 27.75L7.12 6.12L27.12 6L27.75 6.25L27.62 7.62L26.38 8L15.5 7.88L15 8.25L15.25 11.75L16 12L20.88 12L21.5 12.75L21.38 29.75L21.12 29.88L21.12 30.75L22.25 30.88L24.88 28L25.38 26.5L25.25 12.62L26.12 12L30.62 12L31.12 11.75L31.25 2.75L30.62 2.12ZM223.12 6.88L222.38 7.12L221.25 8.38L221 10.5L222.25 12L223.62 12.62L247.38 12.62L248.88 11.88L250 10.38L250 9L249.62 8.25L248.62 7.25L247.62 6.88ZM268.25 6.88L265.62 7.25L261.38 9.12L258.88 11.25L257.25 13.38L256.88 14.62L256.12 15.62L255.25 19.88L255.25 21.75L256.12 25.62L257 27L257.25 28L257.62 28.12L258.25 29.38L259.75 30.88L261.12 32L264.75 33.75L268.75 34.5L273.88 34.5L278 33.75L281.75 31.88L283.88 29.88L284 27.5L282.88 26.12L282 25.75L280.25 25.88L277.75 27.75L274.62 28.75L268.25 28.75L265.25 27.88L264.12 27.12L261.88 24.5L261.12 22.5L261.12 18.75L262.12 16.25L263 15.25L264.12 14.12L266.38 13L268.75 12.62L275.88 12.88L278.75 14.25L279.12 14.88L280.38 15.62L282 15.75L284 14L284.25 12.88L284 11.62L282.75 10.12L282 9.88L281.25 9.12L280.12 8.75L279.62 8.12L277.88 7.75L277.12 7.25L274.62 6.88ZM292.5 6.88L291.62 7.38L290.25 9.12L290.25 22.12L291.25 26.38L291.75 26.88L292.38 28.62L292.88 28.88L294 30.62L294.88 31.12L295.5 32L296.62 32.38L297.25 33L298.38 33.25L299.25 33.88L302.75 34.5L307.25 34.5L310.62 33.88L311.75 33.12L312.75 33L313.25 32.38L314.5 31.88L315.75 30.88L318 27.62L319.75 22.62L319.88 9.38L319.38 8.38L318 7.12L316.12 6.88L315.38 7.12L313.88 9L313.88 21.88L312.62 25.62L310.75 27.5L308.25 28.62L302.62 28.88L299.62 27.88L298 26.5L297 25.12L296 21.75L296 9L294.62 7.25L293.88 6.88ZM223.75 17.75L222.38 18.12L221.25 19.38L220.88 20.5L221 21.5L221.75 22.5L223.62 23.62L247.38 23.62L248.88 22.88L249.88 21.75L250.12 20.88L249.62 19.25L248.62 18.25L247.12 17.75ZM223.75 28.75L222.38 29.25L221.25 30.38L220.88 31.5L221 32.5L221.75 33.5L223.62 34.62L247.38 34.5L248.75 34L249.88 32.75L250.12 31.88L249.62 30.25L248.62 29.25L247.25 28.75Z"/></svg>